<svg width="24" height="24" viewBox="0 0 24 24" fill="none" xmlns="http://www.w3.org/2000/svg">
<path d="M11.4531 2H12.5469C12.603 2.01479 12.66 2.02579 12.7176 2.03294C14.0918 2.12588 15.3984 2.48039 16.6094 3.13725C19.4785 4.69569 21.2332 7.08745 21.8438 10.3137C21.9152 10.6894 21.948 11.0729 22 11.4529V12.6294C21.9854 12.6914 21.9742 12.7541 21.9664 12.8173C21.9239 13.5475 21.7884 14.2693 21.5633 14.9651C20.3802 18.523 17.9833 20.7945 14.3727 21.7796C14.0312 21.8729 13.6766 21.9275 13.3281 22H13.2109V14.1314H15.6219C15.7437 13.1859 15.8621 12.269 15.9836 11.3255H13.2254C13.2254 10.6278 13.2148 9.95529 13.232 9.28353C13.241 9.088 13.2901 8.89643 13.3762 8.72078C13.5578 8.34353 13.9137 8.21961 14.2973 8.20039C14.8168 8.17412 15.3379 8.18039 15.8598 8.17216C15.9281 8.17216 15.9965 8.1651 16.0766 8.16118C16.0766 7.3549 16.0789 6.57137 16.0707 5.78784C16.0707 5.74196 15.9844 5.65961 15.9355 5.65726C15.1492 5.62196 14.3617 5.56196 13.5762 5.57882C12.8133 5.59569 12.107 5.84471 11.5125 6.3498C10.743 7.00353 10.4113 7.87333 10.3594 8.85333C10.3203 9.59647 10.3379 10.3435 10.3305 11.0886C10.3305 11.1647 10.3305 11.2408 10.3305 11.3388H7.9375V14.1435H10.3203V21.9094C10.2987 21.9137 10.2767 21.9156 10.2547 21.9149C9.38231 21.7635 8.53497 21.4918 7.73672 21.1075C6.24527 20.4045 4.95166 19.3398 3.97266 18.0094C3.03867 16.7451 2.42305 15.34 2.15625 13.7882C2.09023 13.4035 2.05156 13.0145 2 12.6275V11.451C2.01172 11.3878 2.02461 11.3251 2.03555 11.2616C2.13867 10.6522 2.1918 10.0282 2.35352 9.43451C3.40625 5.59333 6.41094 2.85451 10.3156 2.15176C10.6918 2.08392 11.0738 2.0498 11.4531 2Z" fill="#1778F2"/>
</svg>
