<svg width="24" height="24" viewBox="0 0 24 24" fill="none" xmlns="http://www.w3.org/2000/svg">
<g clip-path="url(#clip0_622_69479)">
<path d="M15.0512 17.2724C15.6976 16.8621 16.2841 16.3834 16.7601 15.7777C17.1002 15.3493 17.3812 14.8772 17.5956 14.374C17.6198 14.3154 17.6601 14.2611 17.6487 14.1755H13.238C12.6729 14.1755 12.4326 13.9332 12.4326 13.3662C12.4326 12.5784 12.4326 11.7908 12.4326 11.0033C12.4326 10.5242 12.6851 10.2588 13.1634 10.2584C15.8259 10.2553 18.4882 10.2553 21.1505 10.2584C21.5991 10.2584 21.8125 10.4507 21.9031 10.8903C21.9363 11.0517 21.9187 11.2233 21.9996 11.3749V11.4921C21.9854 11.5083 21.9775 11.5291 21.9775 11.5507C21.9775 11.5723 21.9854 11.5931 21.9996 11.6093V11.7656C21.984 11.8027 21.9759 11.8426 21.9759 11.8829C21.9759 11.9231 21.984 11.963 21.9996 12.0001V12.1955C21.9676 12.2839 21.9676 12.3807 21.9996 12.469V12.8989C21.9543 13.2705 21.9387 13.6449 21.8648 14.0141C21.5572 15.5769 20.8731 17.0411 19.8719 18.2798C19.1239 19.2129 18.2232 19.9691 17.2083 20.5935C17.1474 20.6326 17.0872 20.6717 17.009 20.6557C16.9496 20.6281 16.902 20.5801 16.875 20.5205C16.2837 19.4896 15.6835 18.4642 15.0934 17.4334C15.0649 17.3845 15.0164 17.3376 15.0512 17.2724Z" fill="#167EE5"/>
<path d="M6.72255 8.9515C6.44549 9.49507 6.19734 10.0496 6.06526 10.6494C5.73818 12.1343 5.93865 13.5493 6.65142 14.892C6.67839 14.9428 6.69949 14.9967 6.72294 15.0483C6.70809 15.121 6.64869 15.1507 6.59281 15.1831C5.58851 15.7693 4.57718 16.3402 3.57327 16.9252C3.50176 16.9666 3.43024 17.0182 3.3388 17.008C3.24462 16.9506 3.2036 16.8517 3.15514 16.7614C2.59147 15.7268 2.21846 14.5992 2.05393 13.4325C2.02579 13.2285 2.04299 13.0206 2 12.8178V12.6615C2.01426 12.6453 2.02212 12.6244 2.02212 12.6029C2.02212 12.5813 2.01426 12.5604 2 12.5442V12.3098C2.01587 12.2727 2.02405 12.2329 2.02405 12.1926C2.02405 12.1522 2.01587 12.1124 2 12.0753V11.919C2.01587 11.882 2.02405 11.8421 2.02405 11.8018C2.02405 11.7615 2.01587 11.7216 2 11.6846V11.4501C2.01418 11.4339 2.022 11.413 2.022 11.3915C2.022 11.3699 2.01418 11.3491 2 11.3329V11.1375C2.04728 10.649 2.09926 10.1605 2.21454 9.68225C2.42521 8.81787 2.74702 7.98445 3.17194 7.20281C3.21454 7.12466 3.25283 7.03869 3.33411 6.98828C3.41227 6.97147 3.47206 7.01602 3.53263 7.05158C4.53654 7.63969 5.54787 8.21451 6.55568 8.79559C6.62212 8.83662 6.69832 8.86788 6.72255 8.9515Z" fill="#FED400"/>
<path d="M6.72247 8.95151L3.36179 7.00743C3.3145 6.92927 3.37117 6.86988 3.40634 6.81204C3.76245 6.21476 4.18168 5.65745 4.65682 5.1497C5.29535 4.47758 5.99641 3.88166 6.79399 3.4057C7.96241 2.70817 9.21368 2.24081 10.5654 2.05285C10.7569 2.02628 10.9519 2.04465 11.1414 1.99854H11.3368C11.3415 2.00434 11.3475 2.00901 11.3542 2.01222C11.361 2.01543 11.3684 2.0171 11.3758 2.0171C11.3833 2.0171 11.3907 2.01543 11.3975 2.01222C11.4042 2.00901 11.4102 2.00434 11.4149 1.99854H11.5322C11.5692 2.0144 11.6091 2.02258 11.6494 2.02258C11.6897 2.02258 11.7296 2.0144 11.7666 1.99854H12.0011C12.0679 2.07317 12.064 2.16617 12.064 2.25683C12.0656 3.38616 12.0656 4.51562 12.064 5.6452C12.064 5.73547 12.0691 5.82847 12.0015 5.90311C10.5697 5.93203 9.28558 6.37399 8.16874 7.27862C7.63781 7.71046 7.18303 8.22824 6.82329 8.81044C6.79203 8.86085 6.75608 8.90618 6.72247 8.95151Z" fill="#FE4B26"/>
<path d="M3.36344 16.9931L6.72413 15.0505C6.95117 15.3737 7.1618 15.7086 7.42753 16.0036C8.62409 17.3338 10.1163 18.0287 11.9043 18.0884C11.9367 18.0884 11.9691 18.0927 12.0012 18.095C12.0692 18.1697 12.0641 18.2631 12.0641 18.3533C12.0657 19.4826 12.0657 20.612 12.0641 21.7413C12.0641 21.832 12.068 21.925 12.0012 21.9996H11.923C11.8214 21.9667 11.712 21.9667 11.6104 21.9996H11.4932C11.4885 21.9938 11.4825 21.9891 11.4757 21.9859C11.469 21.9827 11.4616 21.981 11.4541 21.981C11.4466 21.981 11.4392 21.9827 11.4325 21.9859C11.4257 21.9891 11.4198 21.9938 11.415 21.9996H11.1806C10.6901 21.9554 10.2017 21.9035 9.72061 21.7882C8.18071 21.4267 6.74802 20.7065 5.53929 19.6862C4.73847 19.0176 4.04992 18.225 3.49982 17.3385C3.43339 17.2357 3.31342 17.1443 3.36344 16.9931Z" fill="#12B247"/>
<path d="M12 5.9034V2H12.1954C12.3105 2.03133 12.4319 2.03133 12.5471 2H12.7816C13.0266 2.08284 13.286 2.07307 13.5377 2.11332C15.4302 2.415 17.0957 3.20045 18.5459 4.447C18.846 4.70452 18.8789 5.11561 18.6041 5.39892C17.988 6.03353 17.3628 6.65876 16.7284 7.27461C16.4639 7.53252 16.125 7.51885 15.812 7.26602C15.1032 6.69381 14.2754 6.28738 13.3892 6.07651C12.932 5.96632 12.465 5.94561 12 5.9034Z" fill="#D83F21"/>
<path d="M17.0043 20.6402C16.6428 20.9059 16.2306 21.0767 15.821 21.2463C14.8793 21.6443 13.8792 21.8867 12.8597 21.9641C12.8284 21.9641 12.7937 21.9614 12.7816 22.0032H12V18.0955C12.7507 18.0564 13.4908 17.9572 14.1911 17.6657C14.4818 17.5441 14.7648 17.4046 15.0508 17.2749C15.662 18.3297 16.2733 19.3848 16.8847 20.4401C16.9238 20.5081 16.9629 20.5738 17.0043 20.6402Z" fill="#0F983E"/>
<path d="M12.547 2C12.4935 2.03087 12.4329 2.04712 12.3712 2.04712C12.3094 2.04712 12.2488 2.03087 12.1953 2H12.547Z" fill="#E0492B"/>
<path d="M11.6094 21.9996C11.6561 21.9701 11.7103 21.9543 11.7657 21.9543C11.821 21.9543 11.8752 21.9701 11.922 21.9996H11.6094Z" fill="#29BA58"/>
<path d="M22.0002 12.4684C21.9703 12.429 21.9541 12.381 21.9541 12.3316C21.9541 12.2822 21.9703 12.2341 22.0002 12.1948V12.4684Z" fill="#2D8AE8"/>
<path d="M11.7657 2C11.7334 2.02876 11.6917 2.04464 11.6485 2.04464C11.6053 2.04464 11.5635 2.02876 11.5312 2H11.7657Z" fill="#FE6748"/>
<path d="M2 11.6868C2.02868 11.7191 2.04452 11.7608 2.04452 11.804C2.04452 11.8472 2.02868 11.8889 2 11.9212V11.6868Z" fill="#FED710"/>
<path d="M21.9996 11.9994C21.9709 11.967 21.9551 11.9253 21.9551 11.8821C21.9551 11.8389 21.9709 11.7972 21.9996 11.7649V11.9994Z" fill="#2B89E7"/>
<path d="M2 12.0776C2.02868 12.11 2.04452 12.1517 2.04452 12.1949C2.04452 12.2381 2.02868 12.2798 2 12.3121V12.0776Z" fill="#FED710"/>
<path d="M2 11.3352C2.05784 11.3743 2.04963 11.4134 2 11.4524V11.3352Z" fill="#FEE87B"/>
<path d="M22.0002 11.6087C21.9522 11.5696 21.9412 11.5305 22.0002 11.4915V11.6087Z" fill="#84BAF1"/>
<path d="M2 12.5464C2.04963 12.5855 2.05784 12.6245 2 12.6636V12.5464Z" fill="#FEE87B"/>
<path d="M11.4141 2C11.3879 2.04377 11.3617 2.04885 11.3359 2H11.4141Z" fill="#FEA694"/>
<path d="M11.4141 21.9995C11.4399 21.9518 11.466 21.9561 11.4922 21.9995H11.4141Z" fill="#76D294"/>
</g>
<defs>
<clipPath id="clip0_622_69479">
<rect width="20" height="20" fill="white" transform="translate(2 2)"/>
</clipPath>
</defs>
</svg>
