<svg width="125" height="48" viewBox="0 0 125 48" fill="none" xmlns="http://www.w3.org/2000/svg">
    <path d="M38.3436 21.2282C38.1023 21.0422 37.8616 20.8616 37.6217 20.6863C37.6217 20.5953 37.6217 20.5064 37.6217 20.4154C37.6217 14.7716 34.4025 9.02069 28.1177 5.38087C28.0429 5.3384 27.4464 8.28666 26.9044 10.9336C26.5 12.9396 26.1097 14.7757 26.0066 14.992H25.9682C25.8186 14.715 25.034 14.7008 25.034 14.7008C25.034 14.7008 25.2483 12.7717 25.5092 10.4301C25.8995 6.91768 26.3969 2.4771 26.4313 2.22434C26.6335 0.69561 22.0938 0 19.4428 0C16.7473 0 12.4786 0.404426 12.5838 2.5863C12.5959 2.82491 13.1581 7.11181 13.609 10.5252C13.8921 12.6726 14.1327 14.4744 14.163 14.7049L13.8375 14.7736L13.2167 14.8505C13.2167 14.8505 12.8466 13.0306 12.42 10.9741C11.874 8.3453 11.233 5.36065 11.1602 5.39503C2.97061 9.23706 1.27 17.7785 1.27 20.3587C1.27 20.4477 1.27 20.5347 1.27 20.6236C0.778624 21.0099 0.499571 21.2626 0.461151 21.301C0.183883 21.5542 0.0185295 21.9071 0.00146458 22.2821C-0.0156004 22.6572 0.117019 23.0237 0.370153 23.3009C0.623286 23.5782 0.976197 23.7435 1.35125 23.7606C1.7263 23.7777 2.09277 23.6451 2.37003 23.3919C2.41048 23.3555 6.24644 19.5276 12.5211 17.7563C17.6404 16.2736 23.098 16.452 28.1096 18.2658L28.3786 18.3669L28.4655 18.4013C29.5497 18.8326 30.6077 19.3268 31.6342 19.8815C33.4235 20.8782 35.0897 22.0815 36.5985 23.4667C36.8393 23.6696 37.1474 23.7749 37.4619 23.762C37.7582 23.7649 38.0479 23.6747 38.2903 23.5043C38.5326 23.3338 38.7153 23.0916 38.8127 22.8117C38.9101 22.5319 38.9172 22.2286 38.833 21.9445C38.7489 21.6604 38.5777 21.4099 38.3436 21.2282Z" fill="#002B4D" />
    <path d="M33.9418 36.7505C36.1509 33.7401 37.345 30.1049 37.3511 26.3709C37.3511 25.9948 37.3349 25.6268 37.3106 25.2587C37.1994 25.1637 34.5808 21.8029 27.5923 19.0994C28.9471 20.9071 30.2211 23.6714 30.2211 26.1161C30.2211 29.9683 28.2192 33.145 25.2102 35.0539L24.8584 35.2683L33.9418 36.7505Z" fill="#002B4D" />
    <path d="M33.6586 38.035L33.0014 37.9299L22.7169 36.2455H22.6926V36.2556L22.5713 36.2354L27.1089 42.2491L31.5394 48.0001L37.8707 42.8295L33.6586 38.035Z" fill="#F04E30" />
    <path d="M19.7401 36.6977C17.811 36.6977 16.0032 36.3823 14.4401 35.4844C11.2269 33.6241 8.85702 30.1278 8.85702 26.12C8.85167 23.5699 9.74846 21.1002 11.3887 19.1477C7.85301 20.4128 4.62704 22.416 1.92519 25.024C1.83824 25.1049 1.76746 25.1757 1.71085 25.2262C1.67445 25.6711 1.65625 26.12 1.65625 26.5729C1.65625 35.1953 8.36565 42.5052 16.9455 43.8156L22.6661 36.2569C21.7194 36.5541 20.7323 36.7029 19.7401 36.6977Z" fill="#002B4D" />
    <path d="M22.6747 36.2558L16.9541 43.8145C17.8664 43.9515 18.7877 44.0191 19.7103 44.0167C22.316 44.0208 24.8895 43.4396 27.2406 42.3161L22.6929 36.2498L22.6747 36.2558Z" fill="#F04E30" />
    <path d="M51.9548 26.9626H47V16.934C47 16.3262 47.0634 15.7316 47.1902 15.1502C47.317 14.5689 47.5138 14.0205 47.7808 13.5052C48.0544 12.9899 48.4047 12.5142 48.8318 12.0782C49.2655 11.6422 49.7861 11.2689 50.3933 10.9584C51.0006 10.6413 51.7013 10.3969 52.4954 10.2251C53.2895 10.0467 54.1903 9.95752 55.198 9.95752C56.1923 9.95752 57.0832 10.0467 57.8706 10.2251C58.6647 10.3969 59.3621 10.6413 59.9626 10.9584C60.5632 11.2689 61.0737 11.6422 61.4941 12.0782C61.9212 12.5142 62.2682 12.9899 62.5352 13.5052C62.8088 14.0205 63.0056 14.5689 63.1257 15.1502C63.2525 15.7316 63.3159 16.3262 63.3159 16.934V26.9626H58.311V16.8151C58.311 16.4319 58.2677 16.0652 58.1809 15.7151C58.0942 15.3649 57.934 15.0577 57.7004 14.7935C57.4736 14.5292 57.1566 14.3211 56.7495 14.1692C56.3491 14.0106 55.832 13.9313 55.198 13.9313C54.564 13.9313 54.0369 14.0106 53.6165 14.1692C53.2027 14.3211 52.8724 14.5292 52.6255 14.7935C52.3786 15.0577 52.2051 15.3649 52.105 15.7151C52.0049 16.0652 51.9548 16.4319 51.9548 16.8151V17.9943C52.5287 17.5054 53.176 17.1388 53.8967 16.8943C54.6174 16.6433 55.4616 16.5079 56.4292 16.488V20.0655C55.555 20.0985 54.831 20.2273 54.2571 20.4519C53.6832 20.6766 53.2261 20.9904 52.8857 21.3934C52.5454 21.7964 52.3052 22.2786 52.165 22.8402C52.0249 23.4017 51.9548 24.0327 51.9548 24.7329V26.9626Z" fill="#002B4D" />
    <path d="M47.2502 8.37196L48.8918 4.80446H63.3159V8.37196H47.2502Z" fill="#002B4D" />
    <path d="M74.7971 18.6385C74.7971 17.7598 74.7437 17.0166 74.637 16.4088C74.5369 15.801 74.38 15.3121 74.1665 14.9421C73.9596 14.5722 73.696 14.3046 73.3757 14.1394C73.0554 13.9743 72.6817 13.8917 72.2546 13.8917C71.7008 13.8917 71.237 14.0998 70.8633 14.516C70.4963 14.9256 70.2493 15.5962 70.1226 16.5277H64.9976C65.0776 15.5631 65.3179 14.6779 65.7183 13.8719C66.1253 13.0593 66.6492 12.3623 67.2898 11.7809C67.9304 11.1929 68.6745 10.7371 69.522 10.4134C70.3695 10.083 71.2804 9.91788 72.2546 9.91788C73.5025 9.91788 74.6069 10.1293 75.5679 10.5521C76.5288 10.9683 77.3329 11.5596 77.9802 12.326C78.6342 13.0857 79.128 14.0007 79.4617 15.0709C79.7953 16.1412 79.9622 17.3304 79.9622 18.6385C79.9622 19.9465 79.7953 21.1357 79.4617 22.206C79.128 23.2762 78.6342 24.1912 77.9802 24.951C77.3329 25.7107 76.5288 26.2987 75.5679 26.7149C74.6069 27.1245 73.5025 27.3293 72.2546 27.3293C71.2804 27.3293 70.3695 27.1674 69.522 26.8437C68.6745 26.52 67.9304 26.0675 67.2898 25.4861C66.6492 24.8981 66.1253 24.1978 65.7183 23.3852C65.3179 22.5726 65.0776 21.6807 64.9976 20.7096H70.1226C70.1826 21.1853 70.276 21.5916 70.4028 21.9285C70.5296 22.2654 70.6831 22.5396 70.8633 22.751C71.0501 22.9558 71.2603 23.1077 71.4939 23.2068C71.7275 23.2993 71.981 23.3456 72.2546 23.3456C72.675 23.3456 73.0421 23.2663 73.3557 23.1077C73.676 22.9492 73.943 22.6882 74.1565 22.3249C74.37 21.9549 74.5302 21.4693 74.637 20.8681C74.7437 20.267 74.7971 19.5237 74.7971 18.6385Z" fill="#002B4D" />
    <path d="M89.4214 14.1394C89.7617 14.0403 90.0487 13.8917 90.2822 13.6935C90.5225 13.4953 90.716 13.2409 90.8628 12.9304C91.0163 12.6199 91.1264 12.25 91.1931 11.8206C91.2665 11.3911 91.3032 10.8923 91.3032 10.3242H95.9377C95.9377 10.965 95.9111 11.553 95.8577 12.0881C95.8043 12.6166 95.6975 13.0989 95.5374 13.5349C95.3839 13.971 95.1637 14.3674 94.8767 14.7241C94.5964 15.0743 94.2261 15.3914 93.7656 15.6754C94.166 15.9199 94.483 16.2238 94.7166 16.5871C94.9568 16.9439 95.1403 17.3205 95.2671 17.7169C95.3939 18.1066 95.474 18.4898 95.5073 18.8664C95.5474 19.243 95.5674 19.5733 95.5674 19.8574V21.7699C95.5674 22.4306 95.474 23.0285 95.2871 23.5636C95.1003 24.0987 94.8433 24.5744 94.5164 24.9906C94.196 25.4002 93.8157 25.757 93.3752 26.0609C92.9348 26.3581 92.461 26.6059 91.9539 26.8041C91.4467 26.9957 90.9162 27.1377 90.3623 27.2302C89.8151 27.3227 89.2679 27.3689 88.7207 27.3689C88.1535 27.3689 87.5863 27.3194 87.019 27.2203C86.4518 27.1212 85.9046 26.9692 85.3774 26.7644C84.8569 26.5596 84.3698 26.3053 83.916 26.0014C83.4689 25.6909 83.0785 25.3308 82.7449 24.9212C82.4112 24.505 82.1476 24.036 81.9541 23.514C81.7673 22.9855 81.6738 22.4042 81.6738 21.7699V20.2637C81.6738 19.8342 81.6972 19.4577 81.7439 19.1339C81.7973 18.8102 81.8707 18.5228 81.9641 18.2718C82.0575 18.0141 82.171 17.7829 82.3044 17.5781C82.4379 17.3733 82.5847 17.1751 82.7449 16.9835C82.9117 16.7919 83.0885 16.597 83.2754 16.3989C83.4689 16.1941 83.6724 15.9661 83.886 15.7151C84.1729 15.3715 84.4098 15.0709 84.5967 14.8133C84.7835 14.5556 84.887 14.3013 84.907 14.0502C84.927 13.8719 84.8836 13.7265 84.7769 13.6142C84.6701 13.5019 84.5233 13.4458 84.3364 13.4458C84.1829 13.4458 84.0161 13.459 83.8359 13.4854C83.6624 13.5118 83.4556 13.5581 83.2153 13.6241C82.9818 13.6902 82.7015 13.7761 82.3745 13.8818C82.0542 13.9809 81.6705 14.1064 81.2234 14.2584V10.889C81.6038 10.7503 81.9741 10.6314 82.3345 10.5323C82.6948 10.4266 83.0285 10.3407 83.3354 10.2746C83.6491 10.2086 83.9294 10.159 84.1763 10.126C84.4299 10.093 84.6334 10.0764 84.7869 10.0764C85.4742 10.0764 86.1148 10.1557 86.7087 10.3143C87.3027 10.4728 87.8098 10.7173 88.2302 11.0476C88.6573 11.3713 88.9776 11.7842 89.1912 12.2863C89.4114 12.7818 89.4881 13.3698 89.4214 14.0502V14.1394ZM90.5625 19.8574C90.5625 18.9655 90.3723 18.2388 89.9919 17.6772C89.6182 17.1157 89.031 16.7754 88.2302 16.6565L87.2893 17.9547C87.1358 18.1595 87.019 18.3445 86.939 18.5096C86.8589 18.6748 86.7988 18.8367 86.7588 18.9952C86.7254 19.1538 86.7021 19.3189 86.6887 19.4907C86.682 19.6625 86.6754 19.8541 86.6687 20.0655V21.5222C86.6687 23.1738 87.3527 23.9996 88.7207 23.9996C89.0277 23.9996 89.2946 23.9633 89.5215 23.8906C89.755 23.8179 89.9486 23.6957 90.1021 23.524C90.2555 23.3456 90.369 23.1111 90.4424 22.8204C90.5225 22.5297 90.5625 22.1663 90.5625 21.7303V19.8574Z" fill="#002B4D" />
    <path d="M90.7527 2H95.5874V7.92603H90.7527V2Z" fill="#002B4D" />
    <path d="M97.1089 16.161C97.1089 15.1172 97.2924 14.2088 97.6594 13.4358C98.0264 12.6563 98.5103 12.0088 99.1108 11.4935C99.7181 10.9782 100.409 10.595 101.183 10.344C101.964 10.0863 102.764 9.95752 103.585 9.95752C104.179 9.95752 104.756 10.0104 105.317 10.1161C105.884 10.2152 106.415 10.3704 106.908 10.5818C107.409 10.7866 107.866 11.0476 108.28 11.3647C108.7 11.6752 109.061 12.0452 109.361 12.4746C109.661 12.8974 109.895 13.3797 110.062 13.9214C110.228 14.4632 110.312 15.061 110.312 15.7151V26.9626H105.307V16.2502C105.307 15.4178 105.163 14.8232 104.876 14.4665C104.59 14.1097 104.159 13.9313 103.585 13.9313C103.091 13.9313 102.688 14.1064 102.374 14.4565C102.067 14.8067 101.884 15.3748 101.823 16.161H97.1089Z" fill="#002B4D" />
    <path d="M119.06 23.4348C119.087 23.5339 119.13 23.6164 119.19 23.6825C119.25 23.742 119.311 23.7717 119.371 23.7717C119.431 23.7717 119.481 23.7387 119.521 23.6726C119.567 23.6065 119.591 23.4975 119.591 23.3456V13.6935H117.339V10.3242H124.596V22.6222C124.596 23.2234 124.529 23.7585 124.396 24.2276C124.262 24.6966 124.075 25.1062 123.835 25.4564C123.595 25.8065 123.308 26.1038 122.974 26.3482C122.64 26.5927 122.27 26.7909 121.863 26.9428C121.463 27.0948 121.032 27.2038 120.572 27.2698C120.111 27.3359 119.634 27.3689 119.14 27.3689C118.486 27.3689 117.892 27.293 117.359 27.141C116.831 26.9891 116.361 26.771 115.947 26.487C115.54 26.2029 115.19 25.8594 114.896 25.4564C114.603 25.0468 114.362 24.5876 114.176 24.0789L111.433 16.6169H116.598L119.06 23.4348Z" fill="#002B4D" />
    <path d="M54.29 45.7687L53.27 44.1055C53.04 44.1451 52.775 44.1649 52.475 44.1649C51.475 44.1649 50.555 43.9323 49.715 43.467C48.885 43.0017 48.225 42.3582 47.735 41.5365C47.245 40.7148 47 39.7891 47 38.7595C47 37.7299 47.245 36.8042 47.735 35.9825C48.225 35.1608 48.885 34.5223 49.715 34.0669C50.555 33.6015 51.475 33.3689 52.475 33.3689C53.475 33.3689 54.39 33.6015 55.22 34.0669C56.05 34.5223 56.705 35.1608 57.185 35.9825C57.675 36.8042 57.92 37.7299 57.92 38.7595C57.92 39.601 57.755 40.3781 57.425 41.091C57.095 41.7939 56.64 42.3928 56.06 42.8878L58.22 45.7687H54.29ZM50.39 38.7595C50.39 39.4723 50.57 40.0415 50.93 40.4672C51.29 40.8831 51.805 41.091 52.475 41.091C53.135 41.091 53.645 40.8831 54.005 40.4672C54.365 40.0415 54.545 39.4723 54.545 38.7595C54.545 38.0368 54.365 37.4675 54.005 37.0517C53.645 36.626 53.135 36.4132 52.475 36.4132C51.805 36.4132 51.29 36.626 50.93 37.0517C50.57 37.4675 50.39 38.0368 50.39 38.7595Z" fill="#F04E30" />
    <path d="M65.6613 37.6309V40.3484H58.6713V37.6309H65.6613Z" fill="#F04E30" />
    <path d="M67.4639 38.7892C67.4639 37.7497 67.6739 36.824 68.0939 36.0122C68.5239 35.2004 69.1339 34.5718 69.9239 34.1263C70.7139 33.6708 71.6439 33.4431 72.7139 33.4431C73.6339 33.4431 74.4539 33.6164 75.1739 33.9629C75.9039 34.2995 76.4939 34.7797 76.9439 35.4034C77.4039 36.0271 77.7089 36.7547 77.8589 37.5863H74.3489C74.1889 37.2398 73.9589 36.9725 73.6589 36.7844C73.3689 36.5864 73.0339 36.4874 72.6539 36.4874C72.0939 36.4874 71.6489 36.6953 71.3189 37.1111C70.9989 37.5269 70.8389 38.0863 70.8389 38.7892C70.8389 39.4921 70.9989 40.0514 71.3189 40.4672C71.6489 40.8831 72.0939 41.091 72.6539 41.091C73.0339 41.091 73.3689 40.9969 73.6589 40.8088C73.9589 40.6108 74.1889 40.3385 74.3489 39.992H77.8589C77.7089 40.8237 77.4039 41.5513 76.9439 42.175C76.4939 42.7987 75.9039 43.2838 75.1739 43.6303C74.4539 43.9669 73.6339 44.1352 72.7139 44.1352C71.6439 44.1352 70.7139 43.9125 69.9239 43.467C69.1339 43.0116 68.5239 42.378 68.0939 41.5662C67.6739 40.7544 67.4639 39.8287 67.4639 38.7892Z" fill="#F04E30" />
    <path d="M88.8828 33.5471V44.061H85.5528V39.9623H82.3878V44.061H79.0578V33.5471H82.3878V37.3339H85.5528V33.5471H88.8828Z" fill="#F04E30" />
    <path d="M97.1911 42.472H93.6511L93.1261 44.061H89.6311L93.5161 33.5471H97.3561L101.226 44.061H97.7161L97.1911 42.472ZM96.3811 39.992L95.4211 37.0666L94.4611 39.992H96.3811Z" fill="#F04E30" />
    <path d="M112.168 44.061H108.838L105.313 38.7743V44.061H101.983V33.5471H105.313L108.838 38.9228V33.5471H112.168V44.061Z" fill="#F04E30" />
    <path d="M120.182 37.1408C120.052 36.9329 119.867 36.7745 119.627 36.6656C119.387 36.5468 119.097 36.4874 118.757 36.4874C118.117 36.4874 117.622 36.6953 117.272 37.1111C116.922 37.517 116.747 38.0764 116.747 38.7892C116.747 39.6109 116.942 40.2247 117.332 40.6306C117.722 41.0365 118.322 41.2395 119.132 41.2395C119.902 41.2395 120.522 40.9326 120.992 40.3187H118.337V37.9873H123.752V41.284C123.292 42.0661 122.657 42.7393 121.847 43.3036C121.037 43.858 120.012 44.1352 118.772 44.1352C117.672 44.1352 116.712 43.9125 115.892 43.467C115.082 43.0116 114.457 42.378 114.017 41.5662C113.587 40.7544 113.372 39.8287 113.372 38.7892C113.372 37.7497 113.587 36.824 114.017 36.0122C114.457 35.2004 115.082 34.5718 115.892 34.1263C116.702 33.6708 117.652 33.4431 118.742 33.4431C120.132 33.4431 121.262 33.7748 122.132 34.4381C123.012 35.1014 123.532 36.0023 123.692 37.1408H120.182Z" fill="#F04E30" />
</svg>